<mxfile host="Electron" agent="Mozilla/5.0 (Macintosh; Intel Mac OS X 10_15_7) AppleWebKit/537.36 (KHTML, like Gecko) draw.io/26.0.9 Chrome/128.0.6613.186 Electron/32.2.5 Safari/537.36" version="26.0.9">
  <diagram id="C5RBs43oDa-KdzZeNtuy" name="Page-1">
    <mxGraphModel dx="1114" dy="894" grid="1" gridSize="10" guides="1" tooltips="1" connect="1" arrows="1" fold="1" page="1" pageScale="1" pageWidth="827" pageHeight="1169" math="0" shadow="0">
      <root>
        <mxCell id="WIyWlLk6GJQsqaUBKTNV-0" />
        <mxCell id="WIyWlLk6GJQsqaUBKTNV-1" parent="WIyWlLk6GJQsqaUBKTNV-0" />
        <mxCell id="VCzKnKpToRcDfp0mh35U-0" value="sim" style="text;html=1;strokeColor=none;fillColor=none;align=center;verticalAlign=middle;whiteSpace=wrap;rounded=0;" parent="WIyWlLk6GJQsqaUBKTNV-1" vertex="1">
          <mxGeometry x="143.5" y="250" width="60" height="30" as="geometry" />
        </mxCell>
        <mxCell id="EX6XXHras8pYAPJqgO5M-56" style="edgeStyle=orthogonalEdgeStyle;rounded=0;orthogonalLoop=1;jettySize=auto;html=1;entryX=0;entryY=0.5;entryDx=0;entryDy=0;exitX=0.5;exitY=1;exitDx=0;exitDy=0;" parent="WIyWlLk6GJQsqaUBKTNV-1" source="WIyWlLk6GJQsqaUBKTNV-3" target="EX6XXHras8pYAPJqgO5M-55" edge="1">
          <mxGeometry relative="1" as="geometry">
            <mxPoint x="280" y="190" as="sourcePoint" />
          </mxGeometry>
        </mxCell>
        <mxCell id="VCzKnKpToRcDfp0mh35U-20" style="edgeStyle=orthogonalEdgeStyle;rounded=0;orthogonalLoop=1;jettySize=auto;html=1;entryX=1;entryY=0.5;entryDx=0;entryDy=0;" parent="WIyWlLk6GJQsqaUBKTNV-1" source="WIyWlLk6GJQsqaUBKTNV-3" target="VCzKnKpToRcDfp0mh35U-9" edge="1">
          <mxGeometry relative="1" as="geometry" />
        </mxCell>
        <mxCell id="WIyWlLk6GJQsqaUBKTNV-3" value="texto" style="rounded=1;whiteSpace=wrap;html=1;fontSize=12;glass=0;strokeWidth=1;shadow=0;" parent="WIyWlLk6GJQsqaUBKTNV-1" vertex="1">
          <mxGeometry x="225" y="120" width="120" height="40" as="geometry" />
        </mxCell>
        <mxCell id="EX6XXHras8pYAPJqgO5M-32" style="edgeStyle=orthogonalEdgeStyle;rounded=0;orthogonalLoop=1;jettySize=auto;html=1;exitX=1;exitY=0.5;exitDx=0;exitDy=0;" parent="WIyWlLk6GJQsqaUBKTNV-1" source="EX6XXHras8pYAPJqgO5M-55" target="EX6XXHras8pYAPJqgO5M-29" edge="1">
          <mxGeometry relative="1" as="geometry">
            <mxPoint x="429.9214285714286" y="316.29999999999995" as="sourcePoint" />
          </mxGeometry>
        </mxCell>
        <mxCell id="EX6XXHras8pYAPJqgO5M-28" style="edgeStyle=orthogonalEdgeStyle;rounded=0;orthogonalLoop=1;jettySize=auto;html=1;" parent="WIyWlLk6GJQsqaUBKTNV-1" source="EX6XXHras8pYAPJqgO5M-3" target="EX6XXHras8pYAPJqgO5M-6" edge="1">
          <mxGeometry relative="1" as="geometry" />
        </mxCell>
        <mxCell id="8EFGUZGCWTQbCas3vfel-0" style="edgeStyle=orthogonalEdgeStyle;rounded=0;orthogonalLoop=1;jettySize=auto;html=1;entryX=0.5;entryY=0;entryDx=0;entryDy=0;" edge="1" parent="WIyWlLk6GJQsqaUBKTNV-1" source="EX6XXHras8pYAPJqgO5M-3" target="EX6XXHras8pYAPJqgO5M-25">
          <mxGeometry relative="1" as="geometry" />
        </mxCell>
        <mxCell id="EX6XXHras8pYAPJqgO5M-3" value="QA RAG" style="shape=cylinder3;whiteSpace=wrap;html=1;boundedLbl=1;backgroundOutline=1;size=15;" parent="WIyWlLk6GJQsqaUBKTNV-1" vertex="1">
          <mxGeometry x="255" y="527.5" width="60" height="80" as="geometry" />
        </mxCell>
        <mxCell id="EX6XXHras8pYAPJqgO5M-5" value="" style="shape=actor;whiteSpace=wrap;html=1;" parent="WIyWlLk6GJQsqaUBKTNV-1" vertex="1">
          <mxGeometry x="265" y="50" width="40" height="60" as="geometry" />
        </mxCell>
        <mxCell id="EX6XXHras8pYAPJqgO5M-42" style="edgeStyle=orthogonalEdgeStyle;rounded=0;orthogonalLoop=1;jettySize=auto;html=1;entryX=0;entryY=0.75;entryDx=0;entryDy=0;exitX=0.5;exitY=1;exitDx=0;exitDy=0;" parent="WIyWlLk6GJQsqaUBKTNV-1" source="EX6XXHras8pYAPJqgO5M-44" target="EX6XXHras8pYAPJqgO5M-5" edge="1">
          <mxGeometry relative="1" as="geometry">
            <mxPoint x="290" y="580" as="sourcePoint" />
            <Array as="points">
              <mxPoint x="190" y="720" />
              <mxPoint x="10" y="720" />
              <mxPoint x="10" y="95" />
            </Array>
          </mxGeometry>
        </mxCell>
        <mxCell id="EX6XXHras8pYAPJqgO5M-47" style="edgeStyle=orthogonalEdgeStyle;rounded=0;orthogonalLoop=1;jettySize=auto;html=1;entryX=0.5;entryY=0;entryDx=0;entryDy=0;" parent="WIyWlLk6GJQsqaUBKTNV-1" source="EX6XXHras8pYAPJqgO5M-6" target="EX6XXHras8pYAPJqgO5M-44" edge="1">
          <mxGeometry relative="1" as="geometry" />
        </mxCell>
        <mxCell id="VCzKnKpToRcDfp0mh35U-7" style="edgeStyle=orthogonalEdgeStyle;rounded=0;orthogonalLoop=1;jettySize=auto;html=1;entryX=0.5;entryY=1;entryDx=0;entryDy=0;" parent="WIyWlLk6GJQsqaUBKTNV-1" source="EX6XXHras8pYAPJqgO5M-6" target="EX6XXHras8pYAPJqgO5M-13" edge="1">
          <mxGeometry relative="1" as="geometry" />
        </mxCell>
        <mxCell id="EX6XXHras8pYAPJqgO5M-6" value="agent" style="shape=hexagon;perimeter=hexagonPerimeter2;whiteSpace=wrap;html=1;fixedSize=1;" parent="WIyWlLk6GJQsqaUBKTNV-1" vertex="1">
          <mxGeometry x="155" y="545" width="70" height="45" as="geometry" />
        </mxCell>
        <mxCell id="EX6XXHras8pYAPJqgO5M-17" style="edgeStyle=orthogonalEdgeStyle;rounded=0;orthogonalLoop=1;jettySize=auto;html=1;entryX=0;entryY=0.5;entryDx=0;entryDy=0;" parent="WIyWlLk6GJQsqaUBKTNV-1" source="EX6XXHras8pYAPJqgO5M-13" target="EX6XXHras8pYAPJqgO5M-19" edge="1">
          <mxGeometry relative="1" as="geometry">
            <mxPoint x="345" y="425" as="targetPoint" />
          </mxGeometry>
        </mxCell>
        <mxCell id="EX6XXHras8pYAPJqgO5M-13" value="&lt;meta charset=&quot;utf-8&quot;&gt;&lt;span style=&quot;color: rgb(0, 0, 0); font-family: Helvetica; font-size: 12px; font-style: normal; font-variant-ligatures: normal; font-variant-caps: normal; font-weight: 400; letter-spacing: normal; orphans: 2; text-align: center; text-indent: 0px; text-transform: none; widows: 2; word-spacing: 0px; -webkit-text-stroke-width: 0px; background-color: rgb(251, 251, 251); text-decoration-thickness: initial; text-decoration-style: initial; text-decoration-color: initial; float: none; display: inline !important;&quot;&gt;Ã© pergunta que pode responder com QA?&lt;/span&gt;" style="rhombus;whiteSpace=wrap;html=1;" parent="WIyWlLk6GJQsqaUBKTNV-1" vertex="1">
          <mxGeometry x="135" y="395" width="110" height="90" as="geometry" />
        </mxCell>
        <mxCell id="EX6XXHras8pYAPJqgO5M-16" value="sim" style="text;html=1;strokeColor=none;fillColor=none;align=center;verticalAlign=middle;whiteSpace=wrap;rounded=0;" parent="WIyWlLk6GJQsqaUBKTNV-1" vertex="1">
          <mxGeometry x="135" y="497.5" width="60" height="30" as="geometry" />
        </mxCell>
        <mxCell id="EX6XXHras8pYAPJqgO5M-18" value="nao" style="text;html=1;strokeColor=none;fillColor=none;align=center;verticalAlign=middle;whiteSpace=wrap;rounded=0;" parent="WIyWlLk6GJQsqaUBKTNV-1" vertex="1">
          <mxGeometry x="237.5" y="410" width="60" height="30" as="geometry" />
        </mxCell>
        <mxCell id="EX6XXHras8pYAPJqgO5M-49" style="edgeStyle=orthogonalEdgeStyle;rounded=0;orthogonalLoop=1;jettySize=auto;html=1;entryX=0;entryY=0.5;entryDx=0;entryDy=0;" parent="WIyWlLk6GJQsqaUBKTNV-1" source="EX6XXHras8pYAPJqgO5M-19" target="EX6XXHras8pYAPJqgO5M-48" edge="1">
          <mxGeometry relative="1" as="geometry" />
        </mxCell>
        <mxCell id="EX6XXHras8pYAPJqgO5M-19" value="tem historico de tweet?" style="rhombus;whiteSpace=wrap;html=1;" parent="WIyWlLk6GJQsqaUBKTNV-1" vertex="1">
          <mxGeometry x="304" y="395" width="110" height="90" as="geometry" />
        </mxCell>
        <mxCell id="EX6XXHras8pYAPJqgO5M-23" value="sim" style="text;html=1;strokeColor=none;fillColor=none;align=center;verticalAlign=middle;whiteSpace=wrap;rounded=0;" parent="WIyWlLk6GJQsqaUBKTNV-1" vertex="1">
          <mxGeometry x="310" y="510" width="60" height="30" as="geometry" />
        </mxCell>
        <mxCell id="ij4otfSvwSwiUSFuM040-0" style="edgeStyle=orthogonalEdgeStyle;rounded=0;orthogonalLoop=1;jettySize=auto;html=1;entryX=0;entryY=0.5;entryDx=0;entryDy=0;" parent="WIyWlLk6GJQsqaUBKTNV-1" source="EX6XXHras8pYAPJqgO5M-25" target="ij4otfSvwSwiUSFuM040-24" edge="1">
          <mxGeometry relative="1" as="geometry">
            <mxPoint x="409" y="779.375" as="targetPoint" />
          </mxGeometry>
        </mxCell>
        <mxCell id="EX6XXHras8pYAPJqgO5M-25" value="agent" style="shape=hexagon;perimeter=hexagonPerimeter2;whiteSpace=wrap;html=1;fixedSize=1;" parent="WIyWlLk6GJQsqaUBKTNV-1" vertex="1">
          <mxGeometry x="310" y="760" width="70" height="40" as="geometry" />
        </mxCell>
        <mxCell id="EX6XXHras8pYAPJqgO5M-27" style="edgeStyle=orthogonalEdgeStyle;rounded=0;orthogonalLoop=1;jettySize=auto;html=1;entryX=0;entryY=0.5;entryDx=0;entryDy=0;exitX=1;exitY=0.5;exitDx=0;exitDy=0;exitPerimeter=0;" parent="WIyWlLk6GJQsqaUBKTNV-1" source="EX6XXHras8pYAPJqgO5M-26" target="EX6XXHras8pYAPJqgO5M-25" edge="1">
          <mxGeometry relative="1" as="geometry">
            <mxPoint x="365" y="825" as="sourcePoint" />
          </mxGeometry>
        </mxCell>
        <mxCell id="EX6XXHras8pYAPJqgO5M-26" value="tweet historico" style="shape=cylinder3;whiteSpace=wrap;html=1;boundedLbl=1;backgroundOutline=1;size=15;" parent="WIyWlLk6GJQsqaUBKTNV-1" vertex="1">
          <mxGeometry x="220" y="740" width="60" height="80" as="geometry" />
        </mxCell>
        <mxCell id="EX6XXHras8pYAPJqgO5M-39" style="edgeStyle=orthogonalEdgeStyle;rounded=0;orthogonalLoop=1;jettySize=auto;html=1;entryX=1;entryY=0.75;entryDx=0;entryDy=0;" parent="WIyWlLk6GJQsqaUBKTNV-1" source="EX6XXHras8pYAPJqgO5M-29" target="EX6XXHras8pYAPJqgO5M-5" edge="1">
          <mxGeometry relative="1" as="geometry">
            <Array as="points">
              <mxPoint x="780" y="568" />
              <mxPoint x="780" y="95" />
            </Array>
          </mxGeometry>
        </mxCell>
        <mxCell id="EX6XXHras8pYAPJqgO5M-29" value="atendente" style="shape=umlActor;verticalLabelPosition=bottom;verticalAlign=top;html=1;outlineConnect=0;" parent="WIyWlLk6GJQsqaUBKTNV-1" vertex="1">
          <mxGeometry x="730" y="537.5" width="30" height="60" as="geometry" />
        </mxCell>
        <mxCell id="EX6XXHras8pYAPJqgO5M-35" value="nao" style="text;html=1;strokeColor=none;fillColor=none;align=center;verticalAlign=middle;whiteSpace=wrap;rounded=0;" parent="WIyWlLk6GJQsqaUBKTNV-1" vertex="1">
          <mxGeometry x="404" y="410" width="60" height="30" as="geometry" />
        </mxCell>
        <mxCell id="EX6XXHras8pYAPJqgO5M-64" style="edgeStyle=orthogonalEdgeStyle;rounded=0;orthogonalLoop=1;jettySize=auto;html=1;" parent="WIyWlLk6GJQsqaUBKTNV-1" source="EX6XXHras8pYAPJqgO5M-36" target="EX6XXHras8pYAPJqgO5M-29" edge="1">
          <mxGeometry relative="1" as="geometry" />
        </mxCell>
        <mxCell id="EX6XXHras8pYAPJqgO5M-36" value="resumo do problema, tipo de problema, ... etc" style="rounded=1;whiteSpace=wrap;html=1;" parent="WIyWlLk6GJQsqaUBKTNV-1" vertex="1">
          <mxGeometry x="560" y="410" width="120" height="60" as="geometry" />
        </mxCell>
        <mxCell id="EX6XXHras8pYAPJqgO5M-40" value="atendimento" style="text;html=1;strokeColor=none;fillColor=none;align=center;verticalAlign=middle;whiteSpace=wrap;rounded=0;" parent="WIyWlLk6GJQsqaUBKTNV-1" vertex="1">
          <mxGeometry x="670" y="100" width="60" height="30" as="geometry" />
        </mxCell>
        <mxCell id="EX6XXHras8pYAPJqgO5M-43" value="atendimento" style="text;html=1;strokeColor=none;fillColor=none;align=center;verticalAlign=middle;whiteSpace=wrap;rounded=0;" parent="WIyWlLk6GJQsqaUBKTNV-1" vertex="1">
          <mxGeometry x="90" y="100" width="60" height="30" as="geometry" />
        </mxCell>
        <mxCell id="EX6XXHras8pYAPJqgO5M-44" value="resposta com o link" style="rounded=0;whiteSpace=wrap;html=1;" parent="WIyWlLk6GJQsqaUBKTNV-1" vertex="1">
          <mxGeometry x="145" y="620" width="90" height="45" as="geometry" />
        </mxCell>
        <mxCell id="EX6XXHras8pYAPJqgO5M-52" style="edgeStyle=orthogonalEdgeStyle;rounded=0;orthogonalLoop=1;jettySize=auto;html=1;entryX=0;entryY=0.5;entryDx=0;entryDy=0;" parent="WIyWlLk6GJQsqaUBKTNV-1" source="EX6XXHras8pYAPJqgO5M-48" target="EX6XXHras8pYAPJqgO5M-36" edge="1">
          <mxGeometry relative="1" as="geometry" />
        </mxCell>
        <mxCell id="EX6XXHras8pYAPJqgO5M-48" value="agent" style="shape=hexagon;perimeter=hexagonPerimeter2;whiteSpace=wrap;html=1;fixedSize=1;" parent="WIyWlLk6GJQsqaUBKTNV-1" vertex="1">
          <mxGeometry x="464" y="420" width="70" height="40" as="geometry" />
        </mxCell>
        <mxCell id="EX6XXHras8pYAPJqgO5M-55" value="analise de sentimento com modelo/agent" style="shape=hexagon;perimeter=hexagonPerimeter2;whiteSpace=wrap;html=1;fixedSize=1;" parent="WIyWlLk6GJQsqaUBKTNV-1" vertex="1">
          <mxGeometry x="370" y="182.31" width="110" height="59.38" as="geometry" />
        </mxCell>
        <mxCell id="EX6XXHras8pYAPJqgO5M-60" style="edgeStyle=orthogonalEdgeStyle;rounded=0;orthogonalLoop=1;jettySize=auto;html=1;exitX=0.5;exitY=1;exitDx=0;exitDy=0;" parent="WIyWlLk6GJQsqaUBKTNV-1" edge="1">
          <mxGeometry relative="1" as="geometry">
            <mxPoint x="190" y="235" as="sourcePoint" />
            <mxPoint x="190" y="235" as="targetPoint" />
          </mxGeometry>
        </mxCell>
        <mxCell id="ij4otfSvwSwiUSFuM040-27" style="edgeStyle=orthogonalEdgeStyle;rounded=0;orthogonalLoop=1;jettySize=auto;html=1;" parent="WIyWlLk6GJQsqaUBKTNV-1" source="ij4otfSvwSwiUSFuM040-1" target="ij4otfSvwSwiUSFuM040-26" edge="1">
          <mxGeometry relative="1" as="geometry" />
        </mxCell>
        <mxCell id="ij4otfSvwSwiUSFuM040-1" value="tweet texto infos" style="shape=cylinder3;whiteSpace=wrap;html=1;boundedLbl=1;backgroundOutline=1;size=15;" parent="WIyWlLk6GJQsqaUBKTNV-1" vertex="1">
          <mxGeometry x="464" y="527.5" width="60" height="80" as="geometry" />
        </mxCell>
        <mxCell id="ij4otfSvwSwiUSFuM040-5" style="edgeStyle=orthogonalEdgeStyle;rounded=0;orthogonalLoop=1;jettySize=auto;html=1;entryX=0;entryY=0.5;entryDx=0;entryDy=0;entryPerimeter=0;" parent="WIyWlLk6GJQsqaUBKTNV-1" source="EX6XXHras8pYAPJqgO5M-19" target="ij4otfSvwSwiUSFuM040-1" edge="1">
          <mxGeometry relative="1" as="geometry">
            <Array as="points">
              <mxPoint x="359" y="568" />
            </Array>
          </mxGeometry>
        </mxCell>
        <mxCell id="ij4otfSvwSwiUSFuM040-25" style="edgeStyle=orthogonalEdgeStyle;rounded=0;orthogonalLoop=1;jettySize=auto;html=1;" parent="WIyWlLk6GJQsqaUBKTNV-1" source="ij4otfSvwSwiUSFuM040-24" target="ij4otfSvwSwiUSFuM040-1" edge="1">
          <mxGeometry relative="1" as="geometry" />
        </mxCell>
        <mxCell id="ij4otfSvwSwiUSFuM040-24" value="&lt;ol style=&quot;text-align: left;&quot;&gt;&lt;li&gt;&lt;span style=&quot;background-color: transparent; color: light-dark(rgb(0, 0, 0), rgb(255, 255, 255));&quot;&gt;&lt;span style=&quot;text-align: center;&quot;&gt;resumo do problema&lt;/span&gt;&lt;/span&gt;&lt;/li&gt;&lt;li&gt;&lt;span style=&quot;background-color: transparent; color: light-dark(rgb(0, 0, 0), rgb(255, 255, 255));&quot;&gt;&lt;span style=&quot;text-align: center;&quot;&gt;tempo do tweet&lt;/span&gt;&lt;/span&gt;&lt;/li&gt;&lt;li&gt;&lt;span style=&quot;text-align: center;&quot;&gt;tipo de problema&lt;/span&gt;&lt;/li&gt;&lt;li style=&quot;text-align: center;&quot;&gt;...&lt;/li&gt;&lt;/ol&gt;" style="rounded=1;whiteSpace=wrap;html=1;" parent="WIyWlLk6GJQsqaUBKTNV-1" vertex="1">
          <mxGeometry x="410" y="740" width="169.5" height="80" as="geometry" />
        </mxCell>
        <mxCell id="ij4otfSvwSwiUSFuM040-28" style="edgeStyle=orthogonalEdgeStyle;rounded=0;orthogonalLoop=1;jettySize=auto;html=1;" parent="WIyWlLk6GJQsqaUBKTNV-1" source="ij4otfSvwSwiUSFuM040-26" target="EX6XXHras8pYAPJqgO5M-29" edge="1">
          <mxGeometry relative="1" as="geometry" />
        </mxCell>
        <mxCell id="ij4otfSvwSwiUSFuM040-26" value="ultimos x tweets infos" style="rounded=1;whiteSpace=wrap;html=1;" parent="WIyWlLk6GJQsqaUBKTNV-1" vertex="1">
          <mxGeometry x="560" y="537.5" width="120" height="60" as="geometry" />
        </mxCell>
        <mxCell id="VCzKnKpToRcDfp0mh35U-3" value="nao" style="text;html=1;strokeColor=none;fillColor=none;align=center;verticalAlign=middle;whiteSpace=wrap;rounded=0;" parent="WIyWlLk6GJQsqaUBKTNV-1" vertex="1">
          <mxGeometry x="83.5" y="180" width="60" height="30" as="geometry" />
        </mxCell>
        <mxCell id="VCzKnKpToRcDfp0mh35U-17" style="edgeStyle=orthogonalEdgeStyle;rounded=0;orthogonalLoop=1;jettySize=auto;html=1;entryX=0.5;entryY=0;entryDx=0;entryDy=0;" parent="WIyWlLk6GJQsqaUBKTNV-1" source="VCzKnKpToRcDfp0mh35U-9" target="VCzKnKpToRcDfp0mh35U-14" edge="1">
          <mxGeometry relative="1" as="geometry" />
        </mxCell>
        <mxCell id="VCzKnKpToRcDfp0mh35U-19" style="edgeStyle=orthogonalEdgeStyle;rounded=0;orthogonalLoop=1;jettySize=auto;html=1;entryX=0;entryY=0.5;entryDx=0;entryDy=0;" parent="WIyWlLk6GJQsqaUBKTNV-1" source="VCzKnKpToRcDfp0mh35U-9" target="EX6XXHras8pYAPJqgO5M-13" edge="1">
          <mxGeometry relative="1" as="geometry">
            <Array as="points">
              <mxPoint x="80" y="212" />
              <mxPoint x="80" y="440" />
            </Array>
          </mxGeometry>
        </mxCell>
        <mxCell id="VCzKnKpToRcDfp0mh35U-9" value="Ã© primeiro round?" style="ellipse;whiteSpace=wrap;html=1;" parent="WIyWlLk6GJQsqaUBKTNV-1" vertex="1">
          <mxGeometry x="143.5" y="180" width="94" height="64" as="geometry" />
        </mxCell>
        <mxCell id="VCzKnKpToRcDfp0mh35U-18" style="edgeStyle=orthogonalEdgeStyle;rounded=0;orthogonalLoop=1;jettySize=auto;html=1;" parent="WIyWlLk6GJQsqaUBKTNV-1" source="VCzKnKpToRcDfp0mh35U-14" target="EX6XXHras8pYAPJqgO5M-13" edge="1">
          <mxGeometry relative="1" as="geometry" />
        </mxCell>
        <mxCell id="VCzKnKpToRcDfp0mh35U-14" value="classificaÃ§Ã£o do probema com model/agent" style="shape=hexagon;perimeter=hexagonPerimeter2;whiteSpace=wrap;html=1;fixedSize=1;" parent="WIyWlLk6GJQsqaUBKTNV-1" vertex="1">
          <mxGeometry x="130" y="290" width="120" height="60" as="geometry" />
        </mxCell>
      </root>
    </mxGraphModel>
  </diagram>
</mxfile>
